<?xml version="1.0" encoding="UTF-8" standalone="no"?>
<!-- Generator: Adobe Illustrator 14.0.0, SVG Export Plug-In . SVG Version: 6.00 Build 43363)  -->

<svg
   xmlns:dc="http://purl.org/dc/elements/1.1/"
   xmlns:cc="http://creativecommons.org/ns#"
   xmlns:rdf="http://www.w3.org/1999/02/22-rdf-syntax-ns#"
   xmlns:svg="http://www.w3.org/2000/svg"
   xmlns="http://www.w3.org/2000/svg"
   xmlns:sodipodi="http://sodipodi.sourceforge.net/DTD/sodipodi-0.dtd"
   xmlns:inkscape="http://www.inkscape.org/namespaces/inkscape"
   version="1.1"
   id="Layer_1"
   x="0px"
   y="0px"
   width="215.20854"
   height="194.39925"
   viewBox="0 0 215.20854 194.39925"
   enable-background="new 0 0 882 357"
   xml:space="preserve"
   sodipodi:docname="reaper.svg"
   inkscape:version="0.92.3 (2405546, 2018-03-11)"><metadata
   id="metadata73"><rdf:RDF><cc:Work
       rdf:about=""><dc:format>image/svg+xml</dc:format><dc:type
         rdf:resource="http://purl.org/dc/dcmitype/StillImage" /><dc:title></dc:title></cc:Work></rdf:RDF></metadata><defs
   id="defs71" /><sodipodi:namedview
   pagecolor="#ffffff"
   bordercolor="#666666"
   borderopacity="1"
   objecttolerance="10"
   gridtolerance="10"
   guidetolerance="10"
   inkscape:pageopacity="0"
   inkscape:pageshadow="2"
   inkscape:window-width="1920"
   inkscape:window-height="1016"
   id="namedview69"
   showgrid="false"
   inkscape:zoom="2.7129811"
   inkscape:cx="100.2457"
   inkscape:cy="114.21047"
   inkscape:window-x="0"
   inkscape:window-y="27"
   inkscape:window-maximized="1"
   inkscape:current-layer="Layer_1" />
<g
   id="g66"
   transform="translate(-72.831456,-81.28)">
	<path
   d="m 242.117,178.319 c -1.201,-7.813 -12.124,-11.508 -23.601,-12.255 -2.645,-0.182 -5.31,-0.192 -7.894,-0.061 v -0.01 c -2.938,0 -7.49,-6.42 -6.167,-12.093 0,-0.01 0,-0.02 0.01,-0.03 0.051,-0.232 0.111,-0.464 0.192,-0.697 1.211,-4.522 1.857,-9.256 1.857,-14.142 0,-31.889 -27.538,-57.751 -61.516,-57.751 -22.138,0 -41.56,10.993 -52.391,27.477 -2.109,3.917 -4.765,8.712 -6.874,14.758 -2.625,7.47 -4.412,16.848 -3.291,28.86 2.009,21.562 -1.817,39.117 -2.009,39.985 0,0.01 0,0.01 0,0.01 -6.208,7.298 -9.842,15.495 -6.067,21.31 2.503,3.836 6.511,5.896 11.074,5.905 -0.343,4.432 -1.04,9.146 -1.958,14.193 -3.059,16.817 3.039,40.025 3.039,40.025 8.187,0.878 22.945,2.039 33.383,1.857 0.071,0.01 0.151,0.01 0.222,0 19.593,-0.061 49.433,-0.818 60.466,-1.857 v -0.081 c 5.875,-0.242 13.607,-2.231 18.614,0.081 8.076,3.715 18.302,-0.323 13.355,-15.465 -4.946,-15.142 -0.061,-41.216 5.825,-47.111 2.241,-2.241 3.321,-8.833 3.583,-16.333 13.364,0.575 21.572,-7.339 20.148,-16.575 z"
   id="path2"
   inkscape:connector-curvature="0"
   style="fill:#656662" />
	<g
   id="g21">
		<g
   id="XMLID_1_">
			<path
   d="m 80.42,192.39 c 4.72,8.01 5.83,16.84 5.02,27.19 -1.76,0 -3.44,-0.31 -4.99,-0.91 v -0.01 c 2.44,-6.99 0.55,-17.33 -2.42,-23.22 l -0.01,-0.01 c 0.74,-1.02 1.54,-2.04 2.4,-3.04 z"
   id="path4"
   inkscape:connector-curvature="0"
   style="fill:#61635f" />
			<path
   d="m 238.23,172.02 0.42,17.25 c -3.14,3.31 -8.19,5.49 -14.59,5.64 l -0.78,-28.36 c 5.98,0.86 11.44,2.62 14.95,5.47 z"
   id="path6"
   inkscape:connector-curvature="0"
   style="fill:#61635f" />
			<path
   d="m 223.28,166.55 0.78,28.36 c -0.68,0.02 -1.38,0.01 -2.09,-0.02 0.43,-11.89 -1.19,-26.08 -3.45,-28.83 1.61,0.11 3.2,0.27 4.76,0.49 z"
   id="path8"
   inkscape:connector-curvature="0"
   style="fill:#5d5f5b" />
			<path
   d="m 172.96,270.81 c 1.15,2.54 4.05,3.05 7.63,2.91 v 0.08 c -3.42,0.32 -8.65,0.62 -14.81,0.87 -8.93,-15.52 -2.43,-62.75 0.19,-72.83 -11.92,2.36 -27.16,1.63 -37.62,-0.98 -2.35,12.89 2.15,26.39 4.65,37.14 2.04,8.75 8.71,26.95 4.64,37.46 -6.21,0.12 -12.24,0.18 -17.52,0.2 5.71,-0.12 10.09,-0.65 11.3,-1.86 3.43,-3.43 -2.54,-20.51 -6.58,-35.32 -3.91,-14.31 -3.86,-39.02 -3.85,-45.65 15.36,3.46 37.19,5.48 53.57,0.43 -5.04,23.56 -7.28,67.56 -1.6,77.55 z"
   id="path10"
   inkscape:connector-curvature="0"
   style="fill:#5d5f5b" />
			<path
   d="m 165.97,201.84 c -2.62,10.08 -9.12,57.31 -0.19,72.83 -8.37,0.35 -18.47,0.63 -28.14,0.79 4.07,-10.51 -2.6,-28.71 -4.64,-37.46 -2.5,-10.75 -7,-24.25 -4.65,-37.14 10.46,2.61 25.7,3.34 37.62,0.98 z"
   id="path12"
   inkscape:connector-curvature="0"
   style="fill:#61635f" />
			<path
   d="m 178.7,180.42 c -1.12,1.9 -2.19,4.92 -3.18,8.76 -0.33,1.27 -0.65,2.64 -0.96,4.08 -16.38,5.05 -38.21,3.03 -53.57,-0.43 0,-0.22 0,-0.43 0,-0.61 v -0.01 c -0.01,-2.34 -2.48,-5.29 -5.81,-8.71 7.8,7.23 48.62,11.82 63.52,-3.08 z"
   id="path14"
   inkscape:connector-curvature="0"
   style="fill:#61635f" />
			<path
   d="m 117.79,125.66 c 10.29,0 18.63,8.34 18.63,18.62 0,10.29 -8.34,21.71 -18.63,21.71 -10.28,0 -18.63,-11.42 -18.63,-21.71 0,-10.28 8.35,-18.62 18.63,-18.62 z"
   id="path16"
   inkscape:connector-curvature="0"
   style="fill:#61635f" />
			<path
   d="m 191.81,136.9 c 0,7.55 -1.34,18.66 -7.14,31.93 0.39,-2.7 1.4,-6.41 2.19,-11.17 -3.76,6.12 -9.84,10.67 -16.7,10.67 -11.42,0 -20.68,-12.63 -20.68,-24.05 0,-11.42 9.26,-20.67 20.68,-20.67 6.79,0 12.82,3.27 16.57,8.33 -0.01,-0.01 -0.01,-0.03 -0.01,-0.04 C 183.39,113.6 163,98.67 145,98.67 c -18.01,0 -35.67,10.33 -43.61,26.99 -7.95,16.65 -2.39,33.67 0,42.67 l -0.01,0.01 c -0.23,-0.34 -0.45,-0.69 -0.66,-1.03 -6.39,-10.36 -10.38,-19.78 -7.84,-32.19 3.69,-18.05 18.17,-42 52.12,-42 32.46,0 46.81,27.35 46.81,43.78 z"
   id="path18"
   inkscape:connector-curvature="0"
   style="fill:#61635f" />
		</g>
	</g>
	<path
   d="m 178.703,180.418 c 10.912,-18.372 13.103,-33.857 13.103,-43.518 0,-16.434 -14.344,-43.78 -46.808,-43.78 -33.948,0 -48.424,23.954 -52.118,42.003 -2.544,12.406 1.454,21.824 7.843,32.182 6.4,10.357 20.25,19.351 20.27,24.903 v 0.01 c 0,5.552 -0.192,31.465 3.846,46.264 4.038,14.809 10.014,31.889 6.582,35.321 -1.211,1.211 -5.593,1.736 -11.296,1.857 -0.071,0.01 -0.151,0.01 -0.222,0 -10.438,0.182 -25.196,-0.979 -33.383,-1.857 0,0 -6.097,-23.208 -3.039,-40.025 0.919,-5.047 1.615,-9.762 1.958,-14.193 0.808,-10.357 -0.303,-19.189 -5.017,-27.194 0,0 0,-0.01 0.01,-0.021 0,0 0,0 0,-0.01 0.192,-0.868 4.018,-18.423 2.009,-39.985 -1.121,-12.012 0.666,-21.39 3.291,-28.86 2.109,-6.046 4.765,-10.841 6.874,-14.758 10.832,-16.484 30.253,-27.477 52.391,-27.477 33.978,0 61.516,25.862 61.516,57.751 0,4.886 -0.646,9.62 -1.857,14.142 -0.081,0.232 -0.141,0.464 -0.192,0.697 -0.01,0.01 -0.01,0.02 -0.01,0.03 -1.323,5.673 3.23,12.093 6.167,12.093 v 0.01 c 2.584,-0.131 5.249,-0.121 7.894,0.061 2.261,2.746 3.886,16.938 3.452,28.83 -0.262,7.5 -1.342,14.092 -3.583,16.333 -5.885,5.895 -10.771,31.969 -5.825,47.111 4.947,15.142 -5.279,19.18 -13.355,15.465 -5.007,-2.312 -12.739,-0.323 -18.614,-0.081 -3.583,0.142 -6.481,-0.374 -7.631,-2.917 -6.026,-10.6 -3.14,-59.487 2.564,-81.625 0.99,-3.836 2.06,-6.864 3.18,-8.762 z"
   id="path23"
   inkscape:connector-curvature="0"
   style="fill:#282829" />
	<g
   id="g36">
		<g
   id="XMLID_3_">
			<path
   d="m 145,81.28 c 21.68,0 40.74,10.53 51.69,26.44 C 153.08,70.15 110.68,93.99 94.67,105.83 105.8,90.98 124.2,81.28 145,81.28 Z"
   id="path25"
   inkscape:connector-curvature="0"
   style="fill:#2e2e2f" />
			<path
   d="m 218.52,166.06 c 1.03,1.26 1.93,4.9 2.56,9.63 -1.69,-8.14 -8.86,-2.15 -16.86,-6.86 -8.78,-5.18 1.29,-34.16 1.29,-40.22 0.66,3.38 1,6.86 1,10.42 0,4.89 -0.64,9.62 -1.85,14.14 -0.08,0.24 -0.14,0.47 -0.2,0.7 -0.01,0.01 -0.01,0.02 -0.01,0.03 -1.32,5.67 3.23,12.09 6.17,12.09 V 166 c 2.59,-0.13 5.25,-0.12 7.9,0.06 z"
   id="path27"
   inkscape:connector-curvature="0"
   style="fill:#2e2e2f" />
			<path
   d="m 99.49,188.1 c 4.51,7.9 9.43,21.57 6.14,38.57 -3.18,16.36 4.48,46.62 5.05,48.87 -3.83,-0.13 -7.78,-0.36 -11.53,-0.62 l 0.01,-0.18 c 1.51,-8.07 -2.83,-20.82 0,-35.45 2.84,-14.62 4.3,-42.11 0.33,-51.19 z"
   id="path29"
   inkscape:connector-curvature="0"
   style="fill:#222223" />
			<path
   d="m 119.26,270.17 c 5.16,-0.55 9.97,-2.31 12.67,-5.02 0.74,4.22 0.76,7.38 -0.51,8.65 -1.21,1.21 -5.59,1.74 -11.3,1.86 -0.07,0.01 -0.15,0.01 -0.22,0 -2.83,0.05 -5.98,0 -9.22,-0.12 -0.57,-2.25 -8.23,-32.51 -5.05,-48.87 3.29,-17 -1.63,-30.67 -6.14,-38.57 3.97,9.08 2.51,36.57 -0.33,51.19 -2.83,14.63 1.51,27.38 0,35.45 l -0.01,0.18 c -4.81,-0.35 -9.27,-0.76 -12.63,-1.12 0,0 -1.12,-4.27 -2.16,-10.47 1.09,1.09 4.32,2.48 8.66,3.75 -4.27,-22.83 6.23,-48.33 2.23,-60.83 -4,-12.5 3.16,-24.5 -1.17,-35.75 10.46,10.46 19.87,29 16.64,41.5 -3.22,12.49 4.27,53.85 8.54,58.17 z"
   id="path31"
   inkscape:connector-curvature="0"
   style="fill:#252526" />
			<path
   d="m 205.85,265.66 c 4.09,-0.95 7,-2.38 7.52,-4.33 h 0.01 c 2.72,12.67 -6.66,15.93 -14.17,12.47 -5.01,-2.31 -12.74,-0.32 -18.62,-0.08 -3.58,0.14 -6.48,-0.37 -7.63,-2.91 -0.94,-1.65 -1.66,-4.22 -2.19,-7.48 h 0.01 c 1.63,1.63 6.11,2.76 11.61,3.33 -3.16,-12.09 -3.84,-41.32 0.11,-55.16 5.25,9.49 6.54,49.84 9.57,55.57 1.8,-0.01 3.59,-0.08 5.33,-0.21 v -0.01 c -7.34,-19.39 -5.65,-42.85 -2.15,-53.35 3.5,-10.5 3.5,-30.25 3.25,-46.5 12,17.25 7.75,43 5.72,55.5 -2.03,12.5 -1.72,29.75 1.63,43.16 z"
   id="path33"
   inkscape:connector-curvature="0"
   style="fill:#252526" />
		</g>
	</g>
	<g
   id="g50">
		<g
   id="g42">
			<path
   d="m 170.158,128.606 c -8.656,0 -15.678,7.019 -15.678,15.678 0,8.655 7.022,15.677 15.678,15.677 8.656,0 15.678,-7.022 15.678,-15.677 0,-8.659 -7.022,-15.678 -15.678,-15.678 z"
   id="path38"
   inkscape:connector-curvature="0"
   style="fill:#c8c398" />
			<path
   d="m 117.791,130.657 c -7.524,0 -13.627,6.102 -13.627,13.627 0,7.521 6.103,13.625 13.627,13.625 7.524,0 13.626,-6.104 13.626,-13.625 0,-7.525 -6.102,-13.627 -13.626,-13.627 z"
   id="path40"
   inkscape:connector-curvature="0"
   style="fill:#c8c398" />
		</g>
		<g
   id="g48">
			<path
   d="m 167.367,150.696 c -2.362,0 -4.275,-1.915 -4.275,-4.274 0,-2.364 1.913,-4.275 4.275,-4.275 2.362,0 4.274,1.912 4.274,4.275 0.001,2.359 -1.912,4.274 -4.274,4.274 z"
   id="path44"
   inkscape:connector-curvature="0" />
			<path
   d="m 115,142.146 c 2.362,0 4.274,1.912 4.274,4.275 0,2.36 -1.913,4.274 -4.274,4.274 -2.361,0 -4.275,-1.915 -4.275,-4.274 -10e-4,-2.363 1.913,-4.275 4.275,-4.275 z"
   id="path46"
   inkscape:connector-curvature="0" />
		</g>
	</g>
	<g
   id="g62">
		<path
   d="m 225.78,119.37 v 29.6 6.34 113.45 h 0.02 c 0,2.79 2.26,5.04 5.03,5.04 2.79,0 5.04,-2.25 5.04,-5.04 h 0.01 V 150.7 142.93 c 15.27,-5.55 38.81,-3.1 52.16,10.24 -9.42,-34.51 -35.67,-40.19 -62.26,-33.8 z"
   id="path52"
   inkscape:connector-curvature="0"
   style="fill:#917555" />
		<path
   d="m 235.88,263.33 v 5.43 h -0.01 c 0,2.79 -2.25,5.04 -5.04,5.04 -2.77,0 -5.03,-2.25 -5.03,-5.04 h -0.02 v -5.43 c 2.61,2.61 7.21,2.89 10.1,0 z m -10.1,-143.96 v 29.6 6.34 c 3.94,-3.93 10.1,-4.61 10.1,-4.61 v -7.77 c 15.27,-5.55 38.81,-3.1 52.16,10.24 -9.42,-34.51 -35.67,-40.19 -62.26,-33.8 z"
   id="path54"
   inkscape:connector-curvature="0"
   style="fill:#8d7253" />
		<path
   d="m 285.62,145.83 c -10.97,-27.96 -35.26,-32.37 -59.84,-26.46 v 6.29 13.67 9.64 c 2.55,-2.54 6.03,-4.58 10.1,-6.04 10.49,-3.81 24.88,-3.85 37.19,0.82 0.01,0.01 0.02,0.01 0.03,0.02 5.6,2.12 10.77,5.23 14.94,9.4 -0.71,-2.61 -1.52,-5.05 -2.42,-7.34 z"
   id="path56"
   inkscape:connector-curvature="0"
   style="fill:#b7c2c2" />
		<path
   d="m 273.07,143.75 c -12.31,-4.67 -26.7,-4.63 -37.19,-0.82 -4.07,1.46 -7.55,3.5 -10.1,6.04 v -9.64 c 10.88,-5.66 34.97,-2.59 47.29,4.42 z"
   id="path58"
   inkscape:connector-curvature="0"
   style="fill:#b2bdbd" />
		<path
   d="m 225.78,119.37 c 24.58,-5.91 48.87,-1.5 59.84,26.46 -10.72,-19.18 -43.3,-28.73 -59.84,-20.17 z"
   id="path60"
   inkscape:connector-curvature="0"
   style="fill:#c0cbcb" />
	</g>
	
		<line
   x1="122.065"
   y1="165.911"
   x2="164.715"
   y2="165.911"
   id="line64"
   style="fill:none;stroke:#454744;stroke-width:3;stroke-linecap:round;stroke-linejoin:round" />
</g>
</svg>