<?xml version="1.0" encoding="UTF-8" standalone="no"?>
<!-- Generator: Adobe Illustrator 16.0.0, SVG Export Plug-In . SVG Version: 6.00 Build 0)  -->

<svg
   xmlns:dc="http://purl.org/dc/elements/1.1/"
   xmlns:cc="http://creativecommons.org/ns#"
   xmlns:rdf="http://www.w3.org/1999/02/22-rdf-syntax-ns#"
   xmlns:svg="http://www.w3.org/2000/svg"
   xmlns="http://www.w3.org/2000/svg"
   xmlns:sodipodi="http://sodipodi.sourceforge.net/DTD/sodipodi-0.dtd"
   xmlns:inkscape="http://www.inkscape.org/namespaces/inkscape"
   version="1.1"
   id="Capa_1"
   x="0px"
   y="0px"
   width="93.169px"
   height="93.169px"
   viewBox="0 0 93.169 93.169"
   style="enable-background:new 0 0 93.169 93.169;"
   xml:space="preserve"
   sodipodi:docname="smartphone.svg"
   inkscape:version="0.92.3 (2405546, 2018-03-11)"><metadata
   id="metadata41"><rdf:RDF><cc:Work
       rdf:about=""><dc:format>image/svg+xml</dc:format><dc:type
         rdf:resource="http://purl.org/dc/dcmitype/StillImage" /></cc:Work></rdf:RDF></metadata><defs
   id="defs39" /><sodipodi:namedview
   pagecolor="#ffffff"
   bordercolor="#666666"
   borderopacity="1"
   objecttolerance="10"
   gridtolerance="10"
   guidetolerance="10"
   inkscape:pageopacity="0"
   inkscape:pageshadow="2"
   inkscape:window-width="1920"
   inkscape:window-height="1016"
   id="namedview37"
   showgrid="false"
   inkscape:snap-bbox="true"
   inkscape:bbox-nodes="false"
   inkscape:bbox-paths="false"
   inkscape:snap-bbox-edge-midpoints="true"
   inkscape:zoom="3.5822474"
   inkscape:cx="10.954877"
   inkscape:cy="66.487534"
   inkscape:window-x="0"
   inkscape:window-y="27"
   inkscape:window-maximized="1"
   inkscape:current-layer="Capa_1" />
<g
   id="g4">
	<path
   d="M64.902,0H28.265c-3.711,0-6.72,3.009-6.72,6.72v79.729c0,3.712,3.008,6.72,6.72,6.72h36.637   c3.713,0,6.722-3.008,6.722-6.72V6.72C71.623,3.009,68.615,0,64.902,0z M42.088,3.973h8.991c0.323,0,0.586,0.263,0.586,0.587   c0,0.323-0.263,0.586-0.586,0.586h-8.991c-0.324,0-0.586-0.263-0.586-0.586C41.502,4.236,41.765,3.973,42.088,3.973z M33.126,2.563   c0.518,0,0.938,0.42,0.938,0.938c0,0.518-0.419,0.938-0.938,0.938s-0.938-0.42-0.938-0.938C32.188,2.983,32.608,2.563,33.126,2.563   z M28.876,2.001c0.829,0,1.5,0.672,1.5,1.5c0,0.828-0.671,1.5-1.5,1.5s-1.5-0.672-1.5-1.5C27.376,2.673,28.047,2.001,28.876,2.001z    M48.93,89.758h-4.691c-1.488,0-2.693-1.205-2.693-2.691c0-1.487,1.205-2.692,2.693-2.692h4.691c1.488,0,2.693,1.205,2.693,2.692   C51.623,88.553,50.418,89.758,48.93,89.758z M68.777,82.248H24.391V10.92h44.386V82.248z"
   id="path2" />
</g>
<g
   id="g6">
</g>
<g
   id="g8">
</g>
<g
   id="g10">
</g>
<g
   id="g12">
</g>
<g
   id="g14">
</g>
<g
   id="g16">
</g>
<g
   id="g18">
</g>
<g
   id="g20">
</g>
<g
   id="g22">
</g>
<g
   id="g24">
</g>
<g
   id="g26">
</g>
<g
   id="g28">
</g>
<g
   id="g30">
</g>
<g
   id="g32">
</g>
<g
   id="g34">
</g>
<path
   style="opacity:1;fill:#000000;fill-opacity:0.65652173;stroke:#9498b7;stroke-width:0;stroke-miterlimit:4;stroke-dasharray:none;stroke-opacity:1"
   id="path869"
   sodipodi:type="arc"
   sodipodi:cx="36.07338"
   sodipodi:cy="28.769876"
   sodipodi:rx="2.0232675"
   sodipodi:ry="1.8258755"
   sodipodi:start="1.589604"
   sodipodi:end="1.5895621"
   d="m 36.035329,30.595429 a 2.0232675,1.8258755 0 0 1 -1.98486,-1.859872 2.0232675,1.8258755 0 0 1 2.060919,-1.791234 2.0232675,1.8258755 0 0 1 1.984902,1.859835 2.0232675,1.8258755 0 0 1 -2.060876,1.791273 l 0.03797,-1.825555 z" /><path
   style="opacity:1;fill:#000000;fill-opacity:0.65652173;stroke:#9498b7;stroke-width:0;stroke-miterlimit:4;stroke-dasharray:none;stroke-opacity:1"
   id="path869-6"
   sodipodi:type="arc"
   sodipodi:cx="51.124512"
   sodipodi:cy="29.016617"
   sodipodi:rx="2.0232675"
   sodipodi:ry="1.8258755"
   sodipodi:start="1.589604"
   sodipodi:end="1.5895621"
   d="m 51.086461,30.842169 a 2.0232675,1.8258755 0 0 1 -1.984859,-1.859872 2.0232675,1.8258755 0 0 1 2.060918,-1.791233 2.0232675,1.8258755 0 0 1 1.984903,1.859834 2.0232675,1.8258755 0 0 1 -2.060877,1.791273 l 0.03797,-1.825554 z"
   inkscape:transform-center-x="9.8695975"
   inkscape:transform-center-y="-0.098695968" /><path
   style="fill:#000000;fill-opacity:0.65652173;stroke:#585858;stroke-width:1px;stroke-linecap:butt;stroke-linejoin:miter;stroke-opacity:1"
   d="m 35.395455,41.49136 c 0,0 3.36529,-3.062669 7.681554,-3.505211 2.882889,0.280787 7.424444,3.295633 7.424444,3.295633 0,0 -5.361887,-2.796375 -7.38444,-2.526568 -1.79971,-0.637671 -7.721558,2.736146 -7.721558,2.736146 z"
   id="path920"
   inkscape:connector-curvature="0"
   sodipodi:nodetypes="ccccc" /></svg>